#!OML:ASF E:\CV Data\Top Level 1\Subject 1\Session 1\player.ASF
:FULLY-SPECIFIED
:DEGREES
760
root 2.61481 17.0894 -0.432637 3.60236 -28.8885 -3.89115
lowerback 10.4874 0.293594 0.650272
upperback 0.026402 0.667847 3.61207
thorax -5.90309 0.355172 3.3265
lowerneck -13.6312 -11.4339 -14.5127
upperneck 12.8407 -15.7151 16.9299
head 8.82353 -6.88544 5.97573
rclavicle 2.98177e-014 6.36111e-015
rhumerus -19.2601 -1.11405 -86.478
rradius 34.6197
rwrist -39.1045
rhand -32.2351 -5.5224
rfingers 7.12502
rthumb -5.47572 -35.4317
lclavicle 2.98177e-014 6.36111e-015
lhumerus -21.7533 -4.87466 89.8293
lradius 34.9647
lwrist 7.46811
lhand -18.2645 16.3355
lfingers 7.12502
lthumb 8.01511 46.1635
rfemur -7.92256 2.66947 24.0151
rtibia 36.997
rfoot -28.4468 -5.43562
rtoes 1.73596
lfemur -30.9218 8.39484 -10.3763
ltibia 43.6669
lfoot -10.5345 6.24895
ltoes -4.85833
761
root 2.62728 17.1087 -0.480594 3.63668 -29.1125 -3.80738
lowerback 10.2874 0.306708 0.652934
upperback -0.0995849 0.68496 3.60682
thorax -5.92417 0.364726 3.31707
lowerneck -13.3905 -11.6905 -14.645
upperneck 12.8542 -16.0864 16.9318
head 8.85919 -7.0774 5.93995
rclavicle -6.25178e-014 5.56597e-015
rhumerus -19.4438 0.306532 -87.3371
rradius 34.7088
rwrist -40.555
rhand -32.5145 -6.13163
rfingers 7.12502
rthumb -5.74547 -36.0337
lclavicle -6.25178e-014 5.56597e-015
lhumerus -21.4268 -5.87025 90.537
lradius 35.4179
lwrist 8.37749
lhand -18.346 16.5442
lfingers 7.12502
lthumb 7.93639 46.3753
rfemur -8.12087 2.72138 23.8979
rtibia 36.8523
rfoot -28.2635 -5.09775
rtoes 2.11966
lfemur -30.4918 8.79836 -10.6184
ltibia 44.621
lfoot -10.7785 6.44577
ltoes -5.00939
762
root 2.63982 17.1265 -0.528335 3.68641 -29.3294 -3.725
lowerback 10.089 0.32702 0.660933
upperback -0.226905 0.711573 3.58694
thorax -5.94759 0.378597 3.28781
lowerneck -13.1955 -11.9495 -14.7463
upperneck 12.8747 -16.4635 16.9324
head 8.90407 -7.26802 5.89539
rclavicle 3.25013e-014 -2.46493e-014
rhumerus -19.6125 1.73302 -88.232
rradius 34.8581
rwrist -41.834
rhand -32.7615 -6.6573
rfingers 7.12502
rthumb -5.98393 -36.5528
lclavicle 3.25013e-014 -2.46493e-014
lhumerus -21.0929 -6.88163 91.2274
lradius 35.8414
lwrist 9.18407
lhand -18.4586 16.765
lfingers 7.12502
lthumb 7.82768 46.6001
rfemur -8.34872 2.78008 23.7871
rtibia 36.738
rfoot -28.0888 -4.77723
rtoes 2.49447
lfemur -30.0583 9.19238 -10.851
ltibia 45.5288
lfoot -11.0381 6.62797
ltoes -5.15301
763
root 2.65245 17.1429 -0.575423 3.74377 -29.5357 -3.64111
lowerback 9.89165 0.340863 0.665488
upperback -0.359907 0.729236 3.56485
thorax -5.97699 0.388175 3.2597
lowerneck -13.0098 -12.1919 -14.8531
upperneck 12.8975 -16.8162 16.9351
head 8.94828 -7.44673 5.85603
rclavicle -1.62506e-014 -9.54166e-015
rhumerus -19.7837 3.22049 -89.1622
rradius 35.0697
rwrist -42.9737
rhand -33.0142 -7.09378
rfingers 7.12502
rthumb -6.22793 -36.9822
lclavicle -1.62506e-014 -9.54166e-015
lhumerus -20.7684 -7.85757 91.913
lradius 36.2329
lwrist 9.89821
lhand -18.5622 17.0569
lfingers 7.12502
lthumb 7.72769 46.8957
rfemur -8.59718 2.85256 23.6814
rtibia 36.6521
rfoot -27.9161 -4.49025
rtoes 2.83435
lfemur -29.6169 9.58266 -11.0801
ltibia 46.3897
lfoot -11.3045 6.79088
ltoes -5.2825
764
root 2.66526 17.1579 -0.622234 3.81696 -29.7147 -3.5608
lowerback 9.69713 0.332041 0.657145
upperback -0.505675 0.716707 3.56153
thorax -6.02023 0.383704 3.2635
lowerneck -12.8328 -12.393 -14.9908
upperneck 12.9494 -17.1043 16.9192
head 8.99383 -7.59694 5.82649
rclavicle 1.18774e-014 -1.43125e-014
rhumerus -19.9678 4.82625 -90.1183
rradius 35.3463
rwrist -44.0253
rhand -33.3031 -7.45196
rfingers 7.12502
rthumb -6.5068 -37.332
lclavicle 1.18774e-014 -1.43125e-014
lhumerus -20.4652 -8.77601 92.6114
lradius 36.5885
lwrist 10.5434
lhand -18.6993 17.3988
lfingers 7.12502
lthumb 7.59543 47.2424
rfemur -8.87297 2.93691 23.5895
rtibia 36.5935
rfoot -27.7413 -4.25119
rtoes 3.1494
lfemur -29.182 9.95689 -11.3012
ltibia 47.2045
lfoot -11.5783 6.93616
ltoes -5.30103
765
root 2.67815 17.1718 -0.668234 3.89871 -29.8639 -3.48156
lowerback 9.50521 0.310651 0.642878
upperback -0.660047 0.687473 3.56529
thorax -6.07324 0.371416 3.28072
lowerneck -12.6547 -12.5655 -15.1388
upperneck 13.0115 -17.349 16.8884
head 9.0348 -7.72836 5.80134
rclavicle -6.0033e-014 1.03368e-014
rhumerus -20.1742 6.49941 -91.0967
rradius 35.7046
rwrist -45.0479
rhand -33.6545 -7.78334
rfingers 7.12502
rthumb -6.84607 -37.6527
lclavicle -6.0033e-014 1.03368e-014
lhumerus -20.1845 -9.69816 93.33
lradius 36.9161
lwrist 11.1611
lhand -18.9074 17.8005
lfingers 7.12502
lthumb 7.3945 47.6513
rfemur -9.16417 3.02955 23.5079
rtibia 36.5556
rfoot -27.5634 -4.06341
rtoes 3.41398
lfemur -28.745 10.3194 -11.518
ltibia 47.9692
lfoot -11.8496 7.05947
ltoes -5.2346
766
root 2.69105 17.1845 -0.713065 3.98174 -29.9886 -3.40265
lowerback 9.31177 0.273965 0.623734
upperback -0.81733 0.637782 3.57829
thorax -6.12745 0.349392 3.31344
lowerneck -12.4654 -12.7058 -15.3043
upperneck 13.0587 -17.5432 16.8532
head 9.06145 -7.83842 5.78711
rclavicle -5.88403e-014 2.06736e-014
rhumerus -20.4003 8.22211 -92.0903
rradius 36.1412
rwrist -46.0859
rhand -34.0393 -8.09771
rfingers 7.12502
rthumb -7.21745 -37.9546
lclavicle -5.88403e-014 2.06736e-014
lhumerus -19.919 -10.6327 94.0659
lradius 37.2106
lwrist 11.8037
lhand -19.1675 18.2659
lfingers 7.12502
lthumb 7.14348 48.1253
rfemur -9.46375 3.12938 23.4332
rtibia 36.542
rfoot -27.3915 -3.91653
rtoes 3.65511
lfemur -28.296 10.6678 -11.7297
ltibia 48.6829
lfoot -12.1188 7.1884
ltoes -5.09774
767
root 2.70372 17.1964 -0.754953 4.03719 -30.1225 -3.32295
lowerback 9.12517 0.24207 0.603738
upperback -0.958344 0.593912 3.59168
thorax -6.16853 0.330069 3.34593
lowerneck -12.2945 -12.8337 -15.4624
upperneck 13.0995 -17.7152 16.8041
head 9.08339 -7.93794 5.77008
rclavicle -4.55217e-014 -1.74931e-014
rhumerus -20.6281 9.92555 -93.0858
rradius 36.6558
rwrist -47.1901
rhand -34.4481 -8.41134
rfingers 7.12502
rthumb -7.61207 -38.2544
lclavicle -4.55217e-014 -1.74931e-014
lhumerus -19.6683 -11.6314 94.8252
lradius 37.4772
lwrist 12.4492
lhand -19.5553 18.7508
lfingers 7.12502
lthumb 6.76908 48.6226
rfemur -9.73568 3.23946 23.3551
rtibia 36.5507
rfoot -27.2366 -3.77775
rtoes 3.88468
lfemur -27.7825 11.0231 -11.9343
ltibia 49.3385
lfoot -12.399 7.3313
ltoes -4.91172
768
root 2.71667 17.2063 -0.798989 4.10703 -30.1584 -3.2413
lowerback 8.96149 0.186151 0.573514
upperback -1.10675 0.517866 3.60748
thorax -6.2287 0.295513 3.39154
lowerneck -12.1567 -12.9536 -15.6037
upperneck 13.129 -17.8722 16.7511
head 9.10303 -8.0284 5.7501
rclavicle 4.77083e-015 -1.27222e-014
rhumerus -20.8461 11.5682 -94.0752
rradius 37.2479
rwrist -48.4038
rhand -34.9038 -8.73434
rfingers 7.12502
rthumb -8.0519 -38.561
lclavicle 4.77083e-015 -1.27222e-014
lhumerus -19.4298 -12.7204 95.6008
lradius 37.7405
lwrist 13.159
lhand -20.0516 19.301
lfingers 7.12502
lthumb 6.28999 49.1876
rfemur -10.0387 3.31859 23.294
rtibia 36.5886
rfoot -27.0924 -3.70673
rtoes 4.11778
lfemur -27.3013 11.3209 -12.1348
ltibia 49.9366
lfoot -12.6615 7.46604
ltoes -4.71572
769
root 2.72967 17.2148 -0.843847 4.16887 -30.1237 -3.15372
lowerback 8.82218 0.107312 0.524555
upperback -1.25562 0.410237 3.63122
thorax -6.30153 0.246372 3.46076
lowerneck -12.0436 -13.0578 -15.7401
upperneck 13.1579 -18.0019 16.6868
head 9.12054 -8.10531 5.7293
rclavicle 4.47266e-015 -1.11319e-014
rhumerus -21.0559 13.148 -95.0499
rradius 37.9018
rwrist -49.745
rhand -35.3764 -9.04296
rfingers 7.12502
rthumb -8.50802 -38.8516
lclavicle 4.47266e-015 -1.11319e-014
lhumerus -19.2172 -13.8646 96.3944
lradius 37.999
lwrist 13.9092
lhand -20.6274 19.8856
lfingers 7.12502
lthumb 5.7341 49.788
rfemur -10.3459 3.36838 23.2381
rtibia 36.6536
rfoot -26.9703 -3.67361
rtoes 4.37346
lfemur -26.8144 11.5741 -12.3317
ltibia 50.471
lfoot -12.9077 7.61619
ltoes -4.54864
770
root 2.74275 17.2219 -0.889818 4.23577 -30.0095 -3.05802
lowerback 8.69496 0.00781786 0.459965
upperback -1.40509 0.273717 3.65643
thorax -6.38002 0.183785 3.54452
lowerneck -11.9673 -13.1558 -15.8625
upperneck 13.1813 -18.12 16.6251
head 9.13991 -8.17407 5.70746
rclavicle -5.27773e-014 -3.26007e-014
rhumerus -21.2426 14.6331 -96.0053
rradius 38.6046
rwrist -51.1989
rhand -35.8695 -9.33525
rfingers 7.12502
rthumb -8.98392 -39.124
lclavicle -5.27773e-014 -3.26007e-014
lhumerus -19.0284 -15.082 97.2011
lradius 38.2641
lwrist 14.7242
lhand -21.2774 20.5289
lfingers 7.12502
lthumb 5.10655 50.4474
rfemur -10.6734 3.37945 23.1841
rtibia 36.744
rfoot -26.8659 -3.67478
rtoes 4.64653
lfemur -26.34 11.7674 -12.5294
ltibia 50.938
lfoot -13.1325 7.79377
ltoes -4.43052
771
root 2.75581 17.2281 -0.935867 4.30341 -29.8331 -2.95205
lowerback 8.57612 -0.116243 0.367832
upperback -1.56234 0.102551 3.69463
thorax -6.46919 0.105747 3.66272
lowerneck -11.8958 -13.2321 -15.9903
upperneck 13.2028 -18.2027 16.5519
head 9.15249 -8.22722 5.68893
rclavicle 5.53118e-014 -2.14687e-014
rhumerus -21.4317 16.0545 -96.9388
rradius 39.3421
rwrist -52.7435
rhand -36.3224 -9.5788
rfingers 7.12502
rthumb -9.42088 -39.3482
lclavicle 5.53118e-014 -2.14687e-014
lhumerus -18.8838 -16.3078 98.03
lradius 38.5405
lwrist 15.5956
lhand -21.9127 21.2522
lfingers 7.12502
lthumb 4.49305 51.1846
rfemur -11.0087 3.36209 23.1256
rtibia 36.8461
rfoot -26.7756 -3.70067
rtoes 4.94054
lfemur -25.8644 11.9138 -12.7312
ltibia 51.3292
lfoot -13.3282 8.00551
ltoes -4.37066
772
root 2.76856 17.2341 -0.978147 4.35265 -29.6758 -2.8425
lowerback 8.43966 -0.236224 0.268684
upperback -1.70396 -0.0647545 3.73661
thorax -6.53119 0.0297767 3.78765
lowerneck -11.833 -13.2896 -16.1091
upperneck 13.2143 -18.2546 16.4657
head 9.15557 -8.26629 5.67003
rclavicle -6.55989e-015 -4.05521e-014
rhumerus -21.6112 17.3983 -97.8476
rradius 40.095
rwrist -54.3427
rhand -36.6869 -9.74588
rfingers 7.12502
rthumb -9.77261 -39.4991
lclavicle -6.55989e-015 -4.05521e-014
lhumerus -18.7741 -17.5628 98.8766
lradius 38.8257
lwrist 16.5428
lhand -22.5281 22.029
lfingers 7.12502
lthumb 3.89876 51.973
rfemur -11.318 3.34422 23.0514
rtibia 36.9505
rfoot -26.7003 -3.6999
rtoes 5.24899
lfemur -25.3272 12.062 -12.9322
ltibia 51.6358
lfoot -13.5096 8.27796
ltoes -4.28084
773
root 2.78099 17.2398 -1.01528 4.37778 -29.5625 -2.72939
lowerback 8.27901 -0.338356 0.17052
upperback -1.82455 -0.209638 3.7736
thorax -6.55766 -0.0356943 3.90243
lowerneck -11.776 -13.327 -16.1965
upperneck 13.227 -18.2755 16.345
head 9.14762 -8.29178 5.64032
rclavicle 5.59082e-014 -2.94201e-014
rhumerus -21.786 18.66 -98.7323
rradius 40.8664
rwrist -55.9763
rhand -36.975 -9.8844
rfingers 7.12502
rthumb -10.0505 -39.6244
lclavicle 5.59082e-014 -2.94201e-014
lhumerus -18.7095 -18.8827 99.744
lradius 39.1274
lwrist 17.5758
lhand -23.1461 22.8376
lfingers 7.12502
lthumb 3.302 52.7918
rfemur -11.5882 3.33711 22.9566
rtibia 37.0467
rfoot -26.6349 -3.66062
rtoes 5.56045
lfemur -24.709 12.2348 -13.1345
ltibia 51.8494
lfoot -13.6798 8.59873
ltoes -4.10941
